REM DIRINDEX 1\2,1\3,1\4,1\5
REM DIRNAME cjc044,folder01,folder02,folder03,folder04
TITLE ""
FILE "1800_097.mp3" MP3
  TRACK 01 AUDIO
    TITLE "2:cjc044_2657"
    INDEX 01 00:00:00
  TRACK 02 AUDIO
    TITLE "0:"
    INDEX 01 00:01:38
  TRACK 03 AUDIO
    TITLE "3:cjc044_2658"
    INDEX 01 00:02:14
  TRACK 04 AUDIO
    TITLE "0:"
    INDEX 01 00:03:51
  TRACK 05 AUDIO
    TITLE "4:cjc044_2659"
    INDEX 01 00:04:27
  TRACK 06 AUDIO
    TITLE "0:"
    INDEX 01 00:06:02
  TRACK 07 AUDIO
    TITLE "5:cjc044_2660"
    INDEX 01 00:06:61
  TRACK 08 AUDIO
    TITLE "0:"
    INDEX 01 00:10:45
  TRACK 09 AUDIO
    TITLE "2:cjc044_2661"
    INDEX 01 00:12:32
  TRACK 10 AUDIO
    TITLE "0:"
    INDEX 01 00:13:53
  TRACK 11 AUDIO
    TITLE "3:cjc044_2662"
    INDEX 01 00:14:39
  TRACK 12 AUDIO
    TITLE "0:"
    INDEX 01 00:16:22
  TRACK 13 AUDIO
    TITLE "4:cjc044_2663"
    INDEX 01 00:17:04
  TRACK 14 AUDIO
    TITLE "0:"
    INDEX 01 00:18:31
  TRACK 15 AUDIO
    TITLE "5:cjc044_2664"
    INDEX 01 00:19:01
  TRACK 16 AUDIO
    TITLE "0:"
    INDEX 01 00:21:68
  TRACK 17 AUDIO
    TITLE "2:cjc044_2665"
    INDEX 01 00:23:50
  TRACK 18 AUDIO
    TITLE "0:"
    INDEX 01 00:24:67
  TRACK 19 AUDIO
    TITLE "3:cjc044_2666"
    INDEX 01 00:25:58
  TRACK 20 AUDIO
    TITLE "0:"
    INDEX 01 00:26:60
  TRACK 21 AUDIO
    TITLE "4:cjc044_2667"
    INDEX 01 00:27:43
  TRACK 22 AUDIO
    TITLE "0:"
    INDEX 01 00:28:62
  TRACK 23 AUDIO
    TITLE "5:cjc044_2668"
    INDEX 01 00:29:33
  TRACK 24 AUDIO
    TITLE "0:"
    INDEX 01 00:32:43
  TRACK 25 AUDIO
    TITLE "2:cjc044_2669"
    INDEX 01 00:34:28
  TRACK 26 AUDIO
    TITLE "0:"
    INDEX 01 00:35:21
  TRACK 27 AUDIO
    TITLE "3:cjc044_2670"
    INDEX 01 00:36:09
  TRACK 28 AUDIO
    TITLE "0:"
    INDEX 01 00:37:30
  TRACK 29 AUDIO
    TITLE "4:cjc044_2671"
    INDEX 01 00:38:14
  TRACK 30 AUDIO
    TITLE "0:"
    INDEX 01 00:39:11
  TRACK 31 AUDIO
    TITLE "5:cjc044_2672"
    INDEX 01 00:39:60
  TRACK 32 AUDIO
    TITLE "0:"
    INDEX 01 00:43:19
  TRACK 33 AUDIO
    TITLE "2:cjc044_2673"
    INDEX 01 00:45:08
  TRACK 34 AUDIO
    TITLE "0:"
    INDEX 01 00:46:13
  TRACK 35 AUDIO
    TITLE "3:cjc044_2674"
    INDEX 01 00:46:72
  TRACK 36 AUDIO
    TITLE "0:"
    INDEX 01 00:48:00
  TRACK 37 AUDIO
    TITLE "4:cjc044_2675"
    INDEX 01 00:48:57
  TRACK 38 AUDIO
    TITLE "0:"
    INDEX 01 00:49:65
  TRACK 39 AUDIO
    TITLE "5:cjc044_2676"
    INDEX 01 00:50:41
  TRACK 40 AUDIO
    TITLE "0:"
    INDEX 01 00:52:59
  TRACK 41 AUDIO
    TITLE "2:cjc044_2677"
    INDEX 01 00:54:40
  TRACK 42 AUDIO
    TITLE "0:"
    INDEX 01 00:55:69
  TRACK 43 AUDIO
    TITLE "3:cjc044_2678"
    INDEX 01 00:56:49
  TRACK 44 AUDIO
    TITLE "0:"
    INDEX 01 00:57:56
  TRACK 45 AUDIO
    TITLE "4:cjc044_2679"
    INDEX 01 00:58:40
  TRACK 46 AUDIO
    TITLE "0:"
    INDEX 01 00:59:69
  TRACK 47 AUDIO
    TITLE "5:cjc044_2680"
    INDEX 01 01:00:51
  TRACK 48 AUDIO
    TITLE "0:"
    INDEX 01 01:04:05
  TRACK 49 AUDIO
    TITLE "2:cjc044_2681"
    INDEX 01 01:05:62
  TRACK 50 AUDIO
    TITLE "0:"
    INDEX 01 01:06:69
  TRACK 51 AUDIO
    TITLE "3:cjc044_2682"
    INDEX 01 01:07:53
  TRACK 52 AUDIO
    TITLE "0:"
    INDEX 01 01:09:34
  TRACK 53 AUDIO
    TITLE "4:cjc044_2683"
    INDEX 01 01:10:20
  TRACK 54 AUDIO
    TITLE "0:"
    INDEX 01 01:11:31
  TRACK 55 AUDIO
    TITLE "5:cjc044_2684"
    INDEX 01 01:12:03
  TRACK 56 AUDIO
    TITLE "0:"
    INDEX 01 01:15:21
  TRACK 57 AUDIO
    TITLE "2:cjc044_2685"
    INDEX 01 01:17:12
  TRACK 58 AUDIO
    TITLE "0:"
    INDEX 01 01:18:37
  TRACK 59 AUDIO
    TITLE "3:cjc044_2686"
    INDEX 01 01:19:21
  TRACK 60 AUDIO
    TITLE "0:"
    INDEX 01 01:20:18
  TRACK 61 AUDIO
    TITLE "4:cjc044_2687"
    INDEX 01 01:21:00
  TRACK 62 AUDIO
    TITLE "0:"
    INDEX 01 01:22:23
  TRACK 63 AUDIO
    TITLE "5:cjc044_2688"
    INDEX 01 01:22:66
  TRACK 64 AUDIO
    TITLE "0:"
    INDEX 01 01:26:03
  TRACK 65 AUDIO
    TITLE "2:cjc044_2689"
    INDEX 01 01:27:59
  TRACK 66 AUDIO
    TITLE "0:"
    INDEX 01 01:28:67
  TRACK 67 AUDIO
    TITLE "3:cjc044_2690"
    INDEX 01 01:29:48
  TRACK 68 AUDIO
    TITLE "0:"
    INDEX 01 01:30:69
  TRACK 69 AUDIO
    TITLE "4:cjc044_2691"
    INDEX 01 01:31:55
  TRACK 70 AUDIO
    TITLE "0:"
    INDEX 01 01:32:60
  TRACK 71 AUDIO
    TITLE "5:cjc044_2692"
    INDEX 01 01:33:34
  TRACK 72 AUDIO
    TITLE "0:"
    INDEX 01 01:36:37
